<svg xmlns="http://www.w3.org/2000/svg" width="6" height="8" viewBox="0 0 6 8"><defs><style>.a{fill:#e3e4d8;}.b{fill:#d0cebd;}.c{fill:#82c288;}.d{fill:#fff;}.e{fill:#a09893;}</style></defs><path class="a" d="M6,7.587H0V0H4.65L6,1.242Zm0,0"/><path class="b" d="M273.656,0V1.238h1.238Zm0,0" transform="translate(-268.894)"/><path class="c" d="M0,353.1H6v2.477H0Zm0,0" transform="translate(0 -347.579)"/><path class="d" d="M142.205,468.139h-.826a.138.138,0,1,1,0-.275h.826a.138.138,0,1,1,0,.275Zm0,0" transform="translate(-138.792 -460.552)"/><path class="d" d="M141.38,381.238a.138.138,0,0,1-.138-.138v-1.376a.138.138,0,0,1,.275,0V381.1A.138.138,0,0,1,141.38,381.238Zm0,0" transform="translate(-138.831 -373.65)"/><g transform="translate(0.688 1.796)"><path class="e" d="M45.375,115.584h-1.1a.138.138,0,0,1-.138-.138v-.55a.138.138,0,0,1,.138-.138h1.1a.138.138,0,0,1,.138.138v.55A.138.138,0,0,1,45.375,115.584Zm-.963-.275h.826v-.275h-.826Zm0,0" transform="translate(-44.137 -114.758)"/><path class="e" d="M45.375,150.9h-1.1a.138.138,0,0,1-.138-.138v-.55a.138.138,0,0,1,.138-.138h1.1a.138.138,0,0,1,.138.138v.55A.138.138,0,0,1,45.375,150.9Zm-.963-.275h.826v-.275h-.826Zm0,0" transform="translate(-44.137 -149.52)"/><path class="e" d="M117.647,150.9H114.9a.138.138,0,0,1-.138-.138v-.55a.138.138,0,0,1,.138-.138h2.752a.138.138,0,0,1,.138.138v.55A.138.138,0,0,1,117.647,150.9Zm-2.614-.275h2.477v-.275h-2.477Zm0,0" transform="translate(-113.161 -149.52)"/><path class="e" d="M45.375,186.2h-1.1a.138.138,0,0,1-.138-.138v-.55a.138.138,0,0,1,.138-.138h1.1a.138.138,0,0,1,.138.138v.55A.138.138,0,0,1,45.375,186.2Zm-.963-.275h.826v-.275h-.826Zm0,0" transform="translate(-44.137 -184.278)"/><path class="e" d="M117.647,186.2H114.9a.138.138,0,0,1-.138-.138v-.55a.138.138,0,0,1,.138-.138h2.752a.138.138,0,0,1,.138.138v.55A.138.138,0,0,1,117.647,186.2Zm-2.614-.275h2.477v-.275h-2.477Zm0,0" transform="translate(-113.161 -184.278)"/><path class="e" d="M45.375,221.517h-1.1a.138.138,0,0,1-.138-.138v-.55a.138.138,0,0,1,.138-.138h1.1a.138.138,0,0,1,.138.138v.55A.138.138,0,0,1,45.375,221.517Zm-.963-.275h.826v-.275h-.826Zm0,0" transform="translate(-44.137 -219.04)"/><path class="e" d="M117.647,221.517H114.9a.138.138,0,0,1-.138-.138v-.55a.138.138,0,0,1,.138-.138h2.752a.138.138,0,0,1,.138.138v.55A.138.138,0,0,1,117.647,221.517Zm-2.614-.275h2.477v-.275h-2.477Zm0,0" transform="translate(-113.161 -219.04)"/><path class="e" d="M45.375,256.826h-1.1a.138.138,0,0,1-.138-.138v-.55a.138.138,0,0,1,.138-.138h1.1a.138.138,0,0,1,.138.138v.55A.138.138,0,0,1,45.375,256.826Zm-.963-.275h.826v-.275h-.826Zm0,0" transform="translate(-44.137 -253.799)"/><path class="e" d="M117.647,256.826H114.9a.138.138,0,0,1-.138-.138v-.55A.138.138,0,0,1,114.9,256h2.752a.138.138,0,0,1,.138.138v.55A.138.138,0,0,1,117.647,256.826Zm-2.614-.275h2.477v-.275h-2.477Zm0,0" transform="translate(-113.161 -253.799)"/></g><path class="d" d="M44.278,381.232a.136.136,0,0,1-.071-.02.138.138,0,0,1-.047-.189l.826-1.376a.138.138,0,0,1,.236.142l-.826,1.376A.138.138,0,0,1,44.278,381.232Zm0,0" transform="translate(-43.452 -373.644)"/><path class="d" d="M45.1,381.236a.137.137,0,0,1-.118-.067l-.826-1.376a.138.138,0,0,1,.236-.142l.826,1.376a.137.137,0,0,1-.118.208Zm0,0" transform="translate(-43.452 -373.649)"/><path class="d" d="M238.963,381.238h-.482a.138.138,0,1,1,0-.275h.482a.206.206,0,0,0,0-.413h-.138a.482.482,0,0,1,0-.963h.482a.138.138,0,1,1,0,.275h-.482a.206.206,0,1,0,0,.413h.138a.482.482,0,0,1,0,.963Zm0,0" transform="translate(-234.132 -373.65)"/></svg>